<?xml version="1.0" encoding="UTF-8" standalone="no"?>
<!-- Created with Inkscape (http://www.inkscape.org/) -->

<svg
   xmlns:dc="http://purl.org/dc/elements/1.1/"
   xmlns:cc="http://creativecommons.org/ns#"
   xmlns:rdf="http://www.w3.org/1999/02/22-rdf-syntax-ns#"
   xmlns:svg="http://www.w3.org/2000/svg"
   xmlns="http://www.w3.org/2000/svg"
   xmlns:sodipodi="http://sodipodi.sourceforge.net/DTD/sodipodi-0.dtd"
   xmlns:inkscape="http://www.inkscape.org/namespaces/inkscape"
   width="297mm"
   height="210mm"
   id="svg2844"
   version="1.1"
   inkscape:version="0.47 r22583"
   sodipodi:docname="krneki.svg">
  <defs
     id="defs2846" />
  <sodipodi:namedview
     inkscape:document-units="mm"
     pagecolor="#ffffff"
     bordercolor="#666666"
     borderopacity="1.0"
     inkscape:pageopacity="0.0"
     inkscape:pageshadow="2"
     inkscape:zoom="0.61399264"
     inkscape:cx="799.70138"
     inkscape:cy="903.61475"
     inkscape:current-layer="layer1"
     id="namedview2848"
     showgrid="false"
     inkscape:window-width="1280"
     inkscape:window-height="732"
     inkscape:window-x="-8"
     inkscape:window-y="-8"
     inkscape:window-maximized="1" />
  <metadata
     id="metadata2850">
    <rdf:RDF>
      <cc:Work
         rdf:about="">
        <dc:format>image/svg+xml</dc:format>
        <dc:type
           rdf:resource="http://purl.org/dc/dcmitype/StillImage" />
      </cc:Work>
    </rdf:RDF>
  </metadata>
  <g
     inkscape:label="Layer 1"
     inkscape:groupmode="layer"
     id="layer1">
    <path
       style="fill:#008080;fill-opacity:0.56613758;stroke:#1860e6;stroke-width:0.5;stroke-miterlimit:4;stroke-opacity:1;stroke-dasharray:none"
       id="path2883"
       d="m 109.37687,0.23338455 c -0.0908,2.97330785 0.15342,-0.0962552 0.21531,2.87794015 0.29784,4.2663801 0.65386,8.5280133 0.93495,12.7959013 0.31729,5.080789 1.14611,10.103398 2.40421,15.031134 1.32539,5.183108 3.07676,10.228344 5.00495,15.212692 1.90808,4.854104 4.33603,9.443592 6.93935,13.950786 2.78005,4.702151 6.00994,9.094474 9.50862,13.281272 4.02987,4.819947 8.61883,9.122461 13.31776,13.276539 5.51035,4.805491 11.42688,9.098276 17.46184,13.212951 5.9424,3.86685 12.04463,7.46008 18.38553,10.63147 6.53362,3.05089 13.0635,6.1163 19.70531,8.92583 7.77942,3.59895 15.84501,6.48147 23.85578,9.50209 8.12314,3.12915 16.38799,5.83664 24.63764,8.60327 8.21217,2.80197 16.49508,5.35829 24.80873,7.83956 8.6464,2.7001 17.41014,4.97018 26.14538,7.35514 8.75154,2.2246 17.46266,4.60178 26.23352,6.75066 8.03839,2.15447 16.11908,4.13878 24.17169,6.23784 7.78302,2.17013 15.44604,4.72829 23.11421,7.26755 8.92884,3.19048 17.87445,6.32849 26.74332,9.68451 9.26169,3.53995 18.59585,6.89414 27.79136,10.6044 9.08436,3.52798 18.06508,7.32106 27.02354,11.15579 9.08313,3.86009 18.20809,7.62485 27.20836,11.67561 8.84834,3.81084 17.50684,8.026 26.11828,12.33779 8.03927,3.91024 16.01763,7.93454 23.79559,12.34423 7.23246,4.3063 14.53217,8.49858 21.72151,12.87688 6.99017,4.19495 13.7566,8.72238 20.37495,13.47838 6.21135,4.6934 12.16176,9.73426 17.96958,14.9165 5.32646,4.54959 10.30535,9.48755 15.18898,14.50386 4.51635,4.7268 8.84653,9.61354 13.02653,14.63874 4.28331,4.91726 8.30626,10.05492 12.37635,15.14883 4.09457,5.31632 8.56625,10.32911 12.83611,15.50411 4.87333,5.58816 9.46594,11.41234 13.83923,17.3977 4.79237,6.19202 9.19102,12.67337 13.33691,19.31178 4.3856,6.85094 8.45097,13.88455 12.36706,21.01108 4.07037,7.21531 7.44461,14.76753 10.45373,22.47569 3.13213,8.44687 5.36644,17.15916 7.07453,25.99173 1.83555,8.97415 2.10151,18.14376 2.37165,27.26753 0.10625,8.4925 -0.2285,16.98275 -0.4933,25.46964 -0.27389,8.20843 -0.49361,16.41856 -0.67885,24.62944 -0.16663,8.18012 -0.46551,16.35926 -0.16052,24.53834 0.33408,7.86494 1.48056,15.66446 2.86831,23.40357 1.29634,7.26613 3.21132,14.40213 5.38497,21.44953 1.92839,6.86831 4.83885,13.37384 7.80717,19.83922 3.00835,6.38905 6.37112,12.60177 9.99622,18.66022 3.62451,6.13363 7.33052,12.21273 11.16153,18.21891 3.70826,5.84722 7.1245,11.87092 10.7139,17.78965 3.54794,5.62449 6.53465,11.55745 9.19359,17.64425 2.52533,5.92595 4.37055,12.10437 6.31017,18.23766 1.80579,6.05397 3.51424,12.13643 5.25738,18.20915 1.64381,5.60625 2.38197,6.29897 2.97551,12.12417 0.38603,4.56462 0.65405,3.89121 1.03698,8.58933 0,0 -47.28622,0.1326 -47.28622,0.1326 l -0.55986,-1.59076 c -0.84427,-3.88111 -0.0837,-0.76004 -1.16226,-4.44178 -1.27975,-5.86228 0.46574,0.63737 -1.11004,-4.6813 -1.7089,-6.03858 0.32095,0.88083 -1.42751,-5.14583 -1.88462,-5.97889 -3.66973,-12.00364 -6.06811,-17.80285 -2.53914,-5.90531 -5.41502,-11.65274 -8.83747,-17.10293 -3.54727,-5.9006 -6.96903,-11.87688 -10.63872,-17.70391 -3.83726,-6.05221 -7.56181,-12.17064 -11.21421,-18.33653 -3.72326,-6.20585 -7.16132,-12.57814 -10.25286,-19.12346 -3.04435,-6.65168 -6.11627,-13.31848 -8.11726,-20.3767 -2.255,-7.22258 -4.22449,-14.54181 -5.58415,-21.99055 -1.50036,-7.92819 -2.72121,-15.92356 -3.1656,-23.98847 -0.44726,-8.27861 -0.12872,-16.55505 0.0278,-24.83968 0.18664,-8.22337 0.38223,-16.4465 0.64872,-24.66775 0.28585,-8.41633 0.63474,-16.83286 0.69268,-25.2547 -0.2019,-8.88691 -0.31172,-17.83115 -2.00965,-26.58896 -1.57479,-8.56315 -3.66974,-17.01227 -6.7072,-25.18779 -2.90349,-7.52561 -6.21383,-14.86984 -10.18086,-21.90302 -3.86339,-7.04818 -7.84348,-14.0228 -12.21915,-20.77016 -4.1158,-6.51682 -8.47724,-12.87943 -13.17727,-18.99113 -4.37175,-5.88114 -8.945,-11.60739 -13.77907,-17.11724 -4.30416,-5.18091 -8.78719,-10.21818 -12.89536,-15.55877 -4.06377,-5.05825 -8.07674,-10.16136 -12.33746,-15.05693 -4.12101,-4.91114 -8.3825,-9.6958 -12.8154,-14.32901 -4.81859,-4.91713 -9.71261,-9.7693 -14.94143,-14.25424 -5.70803,-5.04216 -11.50342,-10.00802 -17.65113,-14.51071 -6.55954,-4.63947 -13.26221,-9.06187 -20.1574,-13.18989 -7.16746,-4.31349 -14.38272,-8.54829 -21.60968,-12.76113 -7.74255,-4.30199 -15.65837,-8.27198 -23.59481,-12.20252 -8.55568,-4.27605 -17.2103,-8.34645 -25.97386,-12.18027 -9.00393,-3.98437 -18.10329,-7.74663 -27.16025,-11.60818 -8.95207,-3.79022 -17.92694,-7.52904 -26.98922,-11.04949 -9.18175,-3.63057 -18.44039,-7.0662 -27.67982,-10.54642 -8.87758,-3.26319 -17.80768,-6.38265 -26.76128,-9.43011 -7.63049,-2.44845 -15.25139,-4.93567 -22.99754,-7.00089 -8.02241,-2.10155 -16.06904,-4.10912 -24.08543,-6.23406 -8.76407,-2.23063 -17.49662,-4.58362 -26.25075,-6.85265 -8.78068,-2.35537 -17.5357,-4.79046 -26.23417,-7.43657 -8.36441,-2.47352 -16.64367,-5.19797 -24.91665,-7.96031 -8.30161,-2.75935 -16.55275,-5.65108 -24.73352,-8.75335 -8.08913,-3.02707 -16.14639,-6.13203 -24.04667,-9.63094 -6.72237,-2.89952 -13.40592,-5.8964 -19.95859,-9.16445 -6.43039,-3.3821 -12.67089,-7.10984 -18.69268,-11.17827 -6.14337,-4.2921 -12.17398,-8.74647 -17.83209,-13.67023 -4.86693,-4.32971 -9.577888,-8.84699 -13.761672,-13.852533 C 89.338229,93.826056 85.932618,89.21547 83.034515,84.261831 80.304011,79.542226 77.722287,74.750601 75.714439,69.668678 73.71944,64.527389 71.873725,59.335792 70.467332,53.997261 69.012686,48.814434 68.049567,43.522128 67.573275,38.156504 67.282139,33.884527 66.928013,29.618128 66.499052,25.357625 66.252958,22.348412 65.776046,3.4975112 65.65727,0.48151319 c 0,0 43.7196,-0.24812864 43.7196,-0.24812864 z"
       sodipodi:nodetypes="ccccccsccccccccccccccccccccccccccccccccccccccccccccccccccccccccccccccccccccccccccccccccccccccccccccccccc" />
  </g>
</svg>
